# xmcd CD database file
#
# Track frame offsets:
#	150
#	12182
#	23985
#	35732
#	46727
#	59255
#	71640
#	84207
#	95787
#	106782
#	117610
#	129845
#	142202
#	154272
#	168385
#	178842
#	193520
#	205380
#	214570
#	224117
#	233362
#	243380
#	255020
#	267355
#	280242
#	293822
#	307017
#	318120
#	328902
#
# Disc length: 4548 seconds
#
# Revision: 0
# Processed by: cddbd v1.5.2PL0 Copyright (c) Steve Scherf et al.
# Submitted via: CDex 1.79
#
DISCID=ad11c21d
DTITLE=Curley Williams and his Georgia Peach Pickers - Half As Much
DYEAR=1900
DGENRE=Country
TTITLE0=Fiddlin` Boogie
TTITLE1=Barbecue Rag
TTITLE2=No No Now
TTITLE3=Shy baby
TTITLE4=Mississippi
TTITLE5=Saturday Night Rag
TTITLE6=Whole Hog Or None
TTITLE7=Honey Do You Love Me - Huh?
TTITLE8=Good Ol'  Alabam (1951)
TTITLE9=All You Gotta Do Is Whistle (1951)
TTITLE10=String Steeling (instrumental)
TTITLE11=Between A Rock And A Hard Place (1951)
TTITLE12=Lou`siana Serenade
TTITLE13=Half As Much
TTITLE14=Texas Swing
TTITLE15=We`ve Come A Long Way Together
TTITLE16=When You`re Tired Of Breaking Other Hearts
TTITLE17=What`s The Matter With My Heart
TTITLE18=On The Okefenokee
TTITLE19=Time And A Half Time
TTITLE20=No Not Now (featuring Hank Williams)
TTITLE21=Leave Me Alone With The Blues
TTITLE22=Grandma`s Turned Over Again
TTITLE23=Woe Is Me
TTITLE24=Georgia Boogie
TTITLE25=Blue Melody
TTITLE26=Good Ol'  Alabam
TTITLE27=All You Gotta Do Is Whistle
TTITLE28=Between A Rock And A Hard Place
EXTD=
EXTT0=
EXTT1=
EXTT2=
EXTT3=
EXTT4=
EXTT5=
EXTT6=
EXTT7=
EXTT8=
EXTT9=
EXTT10=
EXTT11=
EXTT12=
EXTT13=
EXTT14=
EXTT15=
EXTT16=
EXTT17=
EXTT18=
EXTT19=
EXTT20=
EXTT21=
EXTT22=
EXTT23=
EXTT24=
EXTT25=
EXTT26=
EXTT27=
EXTT28=
PLAYORDER=
